<?xml version="1.0" standalone="no"?>
<!DOCTYPE svg PUBLIC "-//W3C//DTD SVG 20010904//EN"
 "http://www.w3.org/TR/2001/REC-SVG-20010904/DTD/svg10.dtd">
<svg version="1.0" xmlns="http://www.w3.org/2000/svg"
 width="512.000000pt" height="512.000000pt" viewBox="0 0 512.000000 512.000000"
 preserveAspectRatio="xMidYMid meet">

<g transform="translate(0.000000,512.000000) scale(0.100000,-0.100000)"
fill="#000000" stroke="none">
<path d="M1990 4899 c-168 -14 -344 -67 -467 -141 -30 -18 -82 -61 -114 -96
-48 -51 -57 -66 -50 -81 17 -31 58 -51 198 -97 l134 -44 96 56 c123 72 138 65
142 -66 2 -52 8 -65 37 -72 18 -4 43 17 134 113 67 71 119 119 131 119 13 0
51 -46 124 -148 l105 -149 162 -6 c231 -9 507 -49 742 -108 43 -11 84 -19 90
-17 17 4 176 178 176 193 0 13 -142 83 -295 143 -247 98 -447 149 -695 178
-134 15 -398 16 -750 1 -39 -2 -45 1 -48 19 -2 11 3 26 10 31 23 19 340 36
543 30 428 -13 757 -93 1160 -281 52 -25 95 -42 95 -38 0 4 -5 23 -10 43 -9
30 -20 40 -87 76 -354 187 -801 314 -1208 343 -156 11 -216 11 -355 -1z m1073
-380 c15 -24 -59 -153 -91 -157 -47 -7 -39 36 28 146 22 35 45 39 63 11z m246
-63 c7 -8 9 -35 5 -77 -9 -89 -19 -111 -47 -107 -21 3 -22 7 -19 87 1 47 8 91
14 98 14 17 33 17 47 -1z"/>
<path d="M3720 4394 c0 -39 1 -40 274 -264 150 -124 270 -226 265 -228 -4 -2
-24 1 -43 7 -34 9 -37 8 -70 -32 -19 -23 -32 -45 -28 -48 4 -4 70 -16 147 -28
77 -12 141 -24 143 -26 3 -2 -6 -21 -18 -42 -136 -229 -238 -408 -262 -460
-59 -125 -50 -221 43 -460 78 -201 92 -257 87 -357 -5 -113 -28 -154 -163
-296 -62 -64 -122 -135 -134 -158 -31 -60 -28 -134 10 -251 61 -189 23 -247
-228 -345 -222 -87 -262 -123 -289 -262 -25 -135 -43 -183 -84 -228 -60 -64
-130 -98 -215 -104 l-71 -4 -124 65 c-146 76 -257 113 -378 127 -88 10 -222 4
-222 -11 0 -4 7 -20 15 -36 9 -15 19 -40 24 -54 9 -25 10 -25 69 -15 84 13
167 -9 325 -90 171 -86 265 -117 339 -112 110 8 269 112 317 207 10 20 35 85
55 145 58 171 107 226 249 276 163 57 198 73 243 113 90 79 102 149 54 300
-57 179 -40 239 106 374 207 190 226 294 119 663 -66 231 -80 316 -65 397 12
70 103 256 236 482 53 91 98 170 101 177 2 7 -11 17 -33 24 -20 7 -190 130
-378 274 -187 144 -358 274 -378 290 l-38 28 0 -38z"/>
<path d="M2282 4220 c-296 -23 -573 -95 -791 -204 -83 -42 -280 -160 -381
-229 -262 -179 -605 -645 -708 -962 -48 -148 -55 -211 -42 -391 15 -204 37
-445 42 -450 3 -2 27 27 54 64 112 152 308 325 459 403 207 109 443 129 662
58 35 -11 66 -18 70 -16 5 3 53 100 108 216 68 144 106 213 119 217 16 5 45
-20 142 -122 68 -71 124 -127 125 -124 1 3 22 104 48 225 45 213 47 220 71
223 22 2 39 -16 129 -137 87 -116 108 -140 125 -135 12 3 73 19 135 37 l115
32 68 180 c100 264 179 453 200 481 42 52 63 25 71 -91 10 -127 53 -263 103
-323 l19 -22 238 77 237 77 0 57 c0 121 38 230 111 316 50 58 159 152 237 203
29 18 50 35 48 37 -2 2 -102 28 -224 58 -121 30 -276 70 -344 90 -431 126
-888 182 -1246 155z m815 -156 c26 -7 38 -33 23 -48 -7 -7 -93 -11 -248 -12
-151 -1 -288 -8 -377 -18 -761 -91 -1289 -398 -1539 -894 -40 -79 -58 -94 -84
-68 -15 15 -14 22 22 93 117 237 329 464 576 616 274 168 662 286 1077 326
102 10 518 13 550 5z m-240 -149 c3 -9 0 -96 -7 -193 -6 -97 -15 -222 -18
-276 -6 -78 -11 -101 -24 -110 -13 -8 -21 -7 -33 4 -13 13 -13 38 -5 185 13
218 28 384 35 396 10 15 45 10 52 -6z m519 -100 c3 -8 -2 -47 -11 -87 -11 -44
-18 -119 -19 -188 -1 -105 -3 -115 -20 -118 -34 -7 -46 25 -46 125 0 90 21
228 41 265 12 22 47 24 55 3z m-1046 -70 c9 -10 9 -23 1 -47 -10 -31 -30 -208
-46 -406 -8 -87 -20 -107 -54 -85 -18 12 -18 32 5 278 21 222 35 275 69 275 7
0 18 -7 25 -15z m293 -38 c2 -7 -6 -73 -19 -147 -33 -194 -56 -412 -52 -494 3
-67 2 -71 -19 -74 -32 -5 -43 31 -43 142 0 164 59 562 86 583 18 13 40 8 47
-10z m-550 -80 c7 -19 -34 -311 -45 -324 -14 -17 -33 -16 -47 0 -16 20 25 317
46 334 17 13 39 8 46 -10z m-404 -56 c12 -8 9 -39 -17 -203 -18 -106 -41 -276
-53 -378 -11 -102 -23 -195 -25 -208 -6 -30 -31 -39 -52 -19 -14 15 -14 34 11
239 31 254 73 522 87 556 10 23 26 28 49 13z m-245 -286 c5 -14 -106 -514
-119 -536 -10 -15 -45 -10 -52 7 -5 14 101 514 114 537 8 13 51 7 57 -8z"/>
<path d="M3556 2874 c-11 -11 -25 -14 -46 -9 -46 10 -130 -19 -168 -58 -49
-51 -72 -121 -72 -224 0 -100 -19 -148 -81 -209 l-38 -37 -10 25 c-12 31 -31
197 -31 267 0 27 -4 52 -10 56 -6 3 -5 15 2 30 17 38 -3 75 -41 75 -16 0 -34
-6 -40 -14 -18 -21 -9 -69 14 -81 19 -9 20 -17 15 -125 -3 -65 -10 -125 -18
-137 -19 -34 -46 -45 -76 -31 -20 9 -26 18 -26 45 0 18 -7 49 -14 68 -12 29
-20 35 -45 35 -54 0 -68 -67 -28 -133 21 -34 22 -44 15 -125 -11 -130 -43
-240 -65 -219 -2 3 -15 48 -28 101 -36 144 -51 166 -114 166 -58 0 -77 -47
-92 -230 -11 -137 -21 -185 -44 -215 -13 -17 -16 -18 -25 -5 -16 25 -32 118
-44 257 -6 72 -14 135 -19 139 -4 4 1 16 10 26 26 29 7 72 -34 76 -25 3 -35
-2 -49 -23 -16 -25 -16 -27 4 -55 12 -16 20 -35 17 -42 -3 -7 -1 -60 4 -118
l9 -105 -34 -89 c-40 -103 -89 -198 -114 -221 -17 -15 -19 -11 -38 62 -27 99
-65 334 -87 533 -17 152 -25 180 -50 180 -39 0 -37 -73 15 -428 11 -74 20
-150 20 -170 0 -44 -27 -100 -56 -119 -20 -13 -23 -11 -43 30 -51 106 -178
103 -258 -5 -60 -82 -85 -240 -50 -320 19 -46 69 -78 120 -78 108 0 191 99
212 251 6 41 10 47 41 58 19 7 40 21 47 32 17 28 23 24 37 -25 38 -137 127
-105 213 76 23 48 45 87 49 88 3 0 11 -13 16 -29 6 -16 22 -37 36 -46 22 -15
31 -16 56 -5 68 28 84 73 105 283 8 81 19 155 24 164 8 14 10 14 19 -3 6 -11
20 -58 32 -104 12 -46 28 -99 35 -116 26 -62 86 -69 125 -15 24 35 55 149 64
241 l7 65 41 -3 c29 -3 48 1 69 17 l28 21 20 -45 c23 -52 53 -65 99 -41 31 16
89 81 111 124 12 22 14 23 31 7 30 -28 83 -30 134 -6 46 23 83 64 112 125 l17
36 20 -33 c25 -43 45 -57 79 -57 55 0 141 107 178 224 11 33 10 40 -4 54 -24
24 -43 7 -71 -63 -30 -72 -75 -139 -97 -143 -30 -6 -66 102 -83 253 -9 81 -27
102 -59 69z m-20 -88 c46 -35 5 -217 -66 -288 -78 -78 -134 -38 -134 97 -1
123 59 205 150 205 16 0 39 -6 50 -14z m-466 -46 c0 -5 -4 -10 -10 -10 -5 0
-10 5 -10 10 0 6 5 10 10 10 6 0 10 -4 10 -10z m-660 -401 c0 -5 -7 -9 -15 -9
-15 0 -20 12 -9 23 8 8 24 -1 24 -14z m-498 -510 c71 -38 60 -227 -18 -304
-42 -43 -99 -49 -130 -14 -28 31 -26 147 4 214 42 91 95 130 144 104z"/>
<path d="M4410 2760 c-14 -4 -37 -12 -52 -18 l-26 -11 18 -73 c23 -91 67 -136
157 -161 105 -29 172 -109 191 -227 l9 -55 27 57 c50 106 42 212 -26 339 -67
128 -184 186 -298 149z"/>
<path d="M1180 2241 c-122 -41 -233 -106 -320 -187 -54 -50 -131 -158 -155
-216 -13 -33 -13 -38 1 -53 24 -23 36 -15 69 47 81 150 211 264 375 328 73 29
138 40 167 29 60 -23 1 -165 -114 -276 -42 -40 -79 -73 -84 -73 -4 0 -9 35
-11 78 -3 75 -4 77 -29 80 -16 2 -29 -3 -32 -11 -3 -7 3 -191 13 -408 9 -217
15 -397 13 -401 -2 -5 -35 -8 -73 -8 -78 0 -108 -17 -90 -51 9 -15 22 -19 70
-19 88 0 155 17 255 65 108 52 195 127 258 223 59 89 81 151 81 226 -1 134
-81 195 -266 204 l-98 5 66 70 c82 87 128 177 129 255 0 48 -3 57 -33 83 -27
24 -41 29 -85 28 -28 0 -77 -8 -107 -18z m225 -502 c21 -6 54 -26 72 -44 27
-27 33 -41 33 -74 0 -131 -126 -305 -281 -386 -37 -19 -71 -35 -77 -35 -5 0
-12 65 -16 148 -3 81 -9 204 -12 274 l-7 127 49 4 c68 6 191 -1 239 -14z"/>
<path d="M3600 2199 c-45 -12 -130 -51 -130 -58 0 -3 21 -18 45 -33 44 -27 83
-87 99 -152 20 -82 144 -143 231 -114 31 10 41 19 43 38 9 87 17 114 48 165
l35 58 -27 28 c-45 47 -118 72 -219 75 -49 2 -106 -1 -125 -7z"/>
<path d="M4185 2061 c-11 -5 -31 -20 -44 -35 -20 -22 -23 -32 -18 -71 9 -62
43 -137 76 -169 22 -21 47 -30 117 -42 132 -23 176 -57 213 -166 l18 -53 18
79 c45 202 -15 350 -177 432 -56 29 -165 42 -203 25z"/>
<path d="M3062 1675 c113 -116 138 -204 83 -301 l-28 -51 20 -39 c35 -69 157
-134 223 -119 34 7 50 25 79 87 13 27 41 63 63 82 33 28 39 39 33 58 -56 179
-239 308 -475 335 l-55 6 57 -58z"/>
<path d="M2477 1443 c-16 -4 -16 -8 8 -39 53 -70 85 -154 85 -226 0 -97 21
-118 163 -162 67 -21 110 -30 113 -24 15 24 6 164 -14 216 -63 164 -223 269
-355 235z"/>
<path d="M4015 1379 c-27 -21 -74 -48 -102 -60 -45 -18 -54 -26 -63 -58 -25
-90 1 -159 84 -220 72 -54 85 -75 100 -163 l12 -73 31 80 c41 108 57 209 49
313 -7 79 -38 206 -54 215 -4 3 -29 -13 -57 -34z"/>
<path d="M1850 1081 c-47 -11 -127 -33 -179 -50 -129 -41 -391 -144 -391 -153
0 -5 19 -8 43 -8 56 0 197 -35 250 -61 23 -12 58 -34 77 -49 51 -40 145 -85
220 -105 73 -19 306 -31 393 -21 54 7 55 8 76 56 51 118 33 219 -52 305 -97
96 -253 127 -437 86z"/>
<path d="M630 812 c0 -11 68 -110 112 -163 38 -46 40 -47 122 -59 62 -9 102
-9 153 -1 79 12 173 40 173 52 0 10 -98 69 -188 114 -64 31 -80 35 -154 35
-46 0 -110 7 -143 15 -71 17 -75 17 -75 7z"/>
<path d="M1060 806 c0 -2 35 -24 78 -49 100 -58 181 -132 234 -214 l42 -66 48
52 c46 51 118 166 118 190 0 20 -100 59 -194 76 -76 13 -326 22 -326 11z"/>
<path d="M3380 743 c-59 -46 -150 -89 -218 -104 -105 -21 -126 -75 -62 -162
47 -64 40 -126 -27 -215 -14 -18 -23 -36 -20 -39 10 -10 164 47 223 83 80 48
118 87 146 148 20 45 23 66 22 179 0 70 -4 131 -10 136 -5 6 -27 -5 -54 -26z"/>
<path d="M2639 703 c-77 -80 -97 -111 -126 -201 -31 -94 -45 -122 -85 -167
-17 -20 -29 -37 -27 -39 2 -2 31 2 64 9 123 26 209 85 233 161 25 76 28 294 4
294 -4 0 -33 -26 -63 -57z"/>
<path d="M1610 623 c-74 -132 -163 -221 -278 -279 l-64 -32 48 -9 c95 -16 292
-8 403 16 187 41 362 113 476 199 l50 37 -145 6 c-197 9 -307 38 -451 116 -4
2 -21 -22 -39 -54z"/>
<path d="M1200 569 c-70 -31 -157 -49 -250 -49 l-85 -1 35 -29 c19 -16 71 -50
114 -77 72 -43 86 -48 141 -48 73 0 195 46 195 74 0 19 -80 143 -95 147 -6 2
-30 -6 -55 -17z"/>
</g>
</svg>
